<svg xmlns="http://www.w3.org/2000/svg" width="55" height="55" viewBox="0 0 55 55">
  <g id="Neveling_Reply_-_RUNNING_MAN_RGB" data-name="Neveling Reply - RUNNING MAN RGB" transform="translate(0)">
    <path id="Path" d="M5,0a5,5,0,1,0,5,5A4.983,4.983,0,0,0,5,0Z" transform="translate(45)" fill="#0b2776"/>
    <path id="Path-2" data-name="Path" d="M37.617,16.079l6.942-9.1a1.424,1.424,0,0,0,.068-1.584L41.681.674A1.468,1.468,0,0,0,40.462,0l-12.7.1H20.786a.573.573,0,0,0-.373,1.011L22.378,2.7a2.039,2.039,0,0,0,.948.438l12.09,2.258L20.447,21.4.738,24.2A.847.847,0,0,0,.23,25.618l1.93,2.056a2.025,2.025,0,0,0,1.49.64l19.033-.3a3.818,3.818,0,0,0,2-.573l4.572-2.764,9.618,7.584a1.774,1.774,0,0,1,.677,1.213l1.829,13.416A1.307,1.307,0,0,0,42.663,48h.982a1.283,1.283,0,0,0,1.287-1.281L45,31.82a3.417,3.417,0,0,0-.711-2.124l-8.4-11.258Z" transform="translate(0 7)" fill="#294289"/>
  </g>
</svg>
