<svg xmlns="http://www.w3.org/2000/svg" width="17.5" height="22.86" viewBox="0 0 17.5 22.86">
  <g id="Group_9" data-name="Group 9" transform="translate(0.75 0.75)">
    <path id="Fill_1" data-name="Fill 1" d="M16,7.9C16,12.269,8,21,8,21S0,12.269,0,7.9A7.952,7.952,0,0,1,8,0a7.952,7.952,0,0,1,8,7.9" fill="#fefefe"/>
    <path id="Stroke_3" data-name="Stroke 3" d="M16,7.9C16,12.269,8,21,8,21S0,12.269,0,7.9A7.952,7.952,0,0,1,8,0,7.952,7.952,0,0,1,16,7.9Z" fill="none" stroke="#1a3580" stroke-miterlimit="10" stroke-width="1.5"/>
    <path id="Fill_5" data-name="Fill 5" d="M7,3.5A3.5,3.5,0,1,1,3.5,0,3.5,3.5,0,0,1,7,3.5" transform="translate(4 4)" fill="#fefefe"/>
    <path id="Stroke_7" data-name="Stroke 7" d="M6,3A3,3,0,1,1,3,0,3,3,0,0,1,6,3Z" transform="translate(5 5)" fill="none" stroke="#2d468a" stroke-miterlimit="10" stroke-width="1.5"/>
  </g>
</svg>
