<svg xmlns="http://www.w3.org/2000/svg" width="17" height="18" viewBox="0 0 17 18">
  <path id="icon_search" d="M15.731,17.772l-.657-.7L12.2,14.041,11.05,12.82A6.5,6.5,0,0,1,8.2,14.254a6.6,6.6,0,0,1-4.272-.522A6.92,6.92,0,0,1,.978,10.925,7.492,7.492,0,0,1,.022,6.679,7.594,7.594,0,0,1,1.6,2.574,6.589,6.589,0,0,1,9.1.421a7.027,7.027,0,0,1,3.272,2.645A7.51,7.51,0,0,1,13.6,7.2s0,0,0,0h0a8.327,8.327,0,0,1-.1,1.205,7.162,7.162,0,0,1-1.4,3.292l.021.022L15,14.759l1.791,1.9a.84.84,0,0,1,0,1.118.67.67,0,0,1-.514.228A.75.75,0,0,1,15.731,17.772ZM6.089,12.677a5.881,5.881,0,0,0,.932.041c.166-.008.331-.021.492-.041l.032,0,.028-.006c.071-.012.141-.024.212-.041a5.758,5.758,0,0,0,.866-.258c.072-.028.14-.06.211-.088l.061-.029c.134-.067.264-.138.394-.212a6.58,6.58,0,0,0,.7-.48c.024-.025.051-.045.079-.07.047-.039.091-.079.136-.121a.88.88,0,0,1,.181-.34.65.65,0,0,1,.327-.2l.12-.145c.024-.025.044-.055.068-.084.09-.113-.016.033-.028.041a.9.9,0,0,0,.122-.175,6.783,6.783,0,0,0,.456-.8c.04-.083.079-.167.114-.25l.011-.022.012-.032c.051-.138.1-.275.146-.418a6.628,6.628,0,0,0,.212-.93c0-.03.036-.192.008-.059s0-.038.008-.058c.008-.075.015-.154.02-.23.012-.154.015-.312.015-.467s-.007-.329-.023-.517c0-.075-.012-.154-.02-.23a.362.362,0,0,1,0-.047c0-.023-.009-.042-.009-.044a6.534,6.534,0,0,0-.2-.9c-.048-.158-.107-.312-.162-.47-.008-.018-.015-.037-.024-.055-.028-.067-.059-.134-.091-.2a6.469,6.469,0,0,0-.441-.776c-.027-.041-.057-.1-.09-.146a.135.135,0,0,1-.036-.033c-.023-.025-.043-.054-.067-.084-.091-.112-.181-.221-.275-.325s-.22-.234-.335-.342l-.158-.142c-.023-.025-.051-.046-.078-.071-.1-.091.019.007.037.027a1.663,1.663,0,0,0-.38-.282q-.171-.119-.355-.225A3.96,3.96,0,0,0,8.9,2.107l-.025-.014-.026-.011c-.068-.025-.13-.054-.2-.079a5.538,5.538,0,0,0-.866-.258c-.079-.017-.157-.033-.237-.046l-.037-.006-.021,0c-.146-.021-.292-.029-.437-.037a5.886,5.886,0,0,0-.92.035l.007,0-.011,0H6.115a.346.346,0,0,0-.067.011l-.02,0c-.071.013-.141.025-.212.042-.149.033-.3.07-.441.113S5.092,1.949,4.95,2c-.067.025-.13.054-.2.079l-.023.009L4.7,2.107a5.647,5.647,0,0,0-.776.45,1.482,1.482,0,0,0-.381.283c.015-.018.141-.121.038-.028-.023.025-.05.046-.078.071-.055.046-.106.092-.158.142a6.3,6.3,0,0,0-.61.667c-.024.028-.047.06-.07.089-.035.051-.072.1-.107.153-.083.13-.166.258-.24.392s-.146.271-.212.409c-.031.067-.063.133-.091.2-.009.019-.016.038-.024.057a8.224,8.224,0,0,0-.275.9c-.035.155-.067.313-.091.472,0,0,0,.011-.005.025a.325.325,0,0,1,0,.038c-.008.087-.016.171-.024.258a6.626,6.626,0,0,0,0,.964c.008.091.019.184.027.275,0,.024.006.05.008.075.02.15.051.3.083.446a6.712,6.712,0,0,0,.264.884l.011.025c.016.033.028.067.044.1.027.067.059.133.09.2.063.13.13.258.2.383.079.142.166.28.257.413a.935.935,0,0,0,.12.174c-.016-.015-.114-.151-.026-.04.023.024.043.054.067.083a5.9,5.9,0,0,0,.59.651c.067.063.13.122.2.18.019.019.04.037.061.055.108.083.212.166.32.241a5.862,5.862,0,0,0,.772.455l.04.025.034.013c.067.024.13.054.2.079q.2.074.4.138c.153.046.307.087.464.121.071.017.141.03.212.041l.027.006Zm.045.009h0Zm1.334,0h0ZM2.7,10.629Zm8.916-1.258a.147.147,0,0,0,.021-.056S11.625,9.346,11.615,9.371Zm-10-2.893v0Zm8.437-3.637ZM8.8,2.061a.507.507,0,0,1,.049.02A.158.158,0,0,0,8.8,2.061Zm-4.045.015L4.8,2.061h0A.123.123,0,0,0,4.756,2.076ZM6.049,1.7a.74.74,0,0,0,.076-.012h0a.311.311,0,0,1-.076.014C6.048,1.7,6.046,1.7,6.049,1.7Z" transform="translate(0 0)" fill="#00136f"/>
</svg>
